# xmcd
#
# Track frame offsets:
#	150
#	21578
#	46660
#	73290
#	98195
#	119658
#	128285
#	147758
#	166938
#	185856
#	207129
#	236702
#	255685
#	279769
#	296687
#	321607
#	340894
#
# Disc length: 4804 seconds
#
# Revision: 1
# Processed by: cddbd v1.5.2PL0 Copyright (c) Steve Scherf et al.
# Submitted via: EasyCDDAExtractor 8.2.3.1
#
DISCID=0a12c211
DTITLE=TONY JOE WHITE - The Best of...vol.2  CD-1
DYEAR=2004
DGENRE=Blues
TTITLE0=Catawalling Alley in Nice-
TTITLE1=Conjure Woman
TTITLE2=The Other Side
TTITLE3=The Guitar Don't Lie
TTITLE4=Hard Time With Sunday
TTITLE5=Soul Francisco
TTITLE6=Main Squeeze
TTITLE7=Gumbo John
TTITLE8=Up in Arkansas
TTITLE9=Louisiana Rain
TTITLE10=Closer To the Truth
TTITLE11=Crack the Window Baby
TTITLE12=Always the Song
TTITLE13=For Ol' Times Sake
TTITLE14=Yo Yo Man,Garter Belt
TTITLE15=More to This Than That
TTITLE16=Cool Town Woman
EXTD=
EXTT0=
EXTT1=
EXTT2=
EXTT3=
EXTT4=
EXTT5=
EXTT6=
EXTT7=
EXTT8=
EXTT9=
EXTT10=
EXTT11=
EXTT12=
EXTT13=
EXTT14=
EXTT15=
EXTT16=
PLAYORDER=
